<svg width="1919" height="1057" viewBox="0 0 1919 1057" fill="none" xmlns="http://www.w3.org/2000/svg">
<g clip-path="url(#clip0_2095_853)">
<path d="M-12.8092 -129C68.9166 -127.888 150.845 -135.977 232.267 -139.415C249.664 -140.427 267.061 -141.236 284.458 -142.045C319.253 -143.46 354.148 -144.37 388.942 -143.966C407.553 -143.966 426.164 -143.865 444.775 -143.46C500.607 -142.449 556.338 -140.022 612.171 -136.382C629.973 -135.573 647.673 -134.865 665.475 -134.258C771.88 -130.618 878.083 -130.011 984.185 -130.213C1007.75 -130.416 1031.42 -130.618 1054.99 -130.921C1220.16 -133.247 1385.33 -139.011 1550.7 -144.067C1677.14 -148.112 1800.53 -152.157 1928.99 -128.899C1932.02 -127.888 1932.02 -112.72 1931.01 -102.607C1929.49 -69.2375 1928.58 -35.9688 1928.08 -2.69999C1928.28 62.3207 1928.79 127.24 1929.29 192.16C1929.6 224.62 1929.8 257.08 1930.1 289.539C1930.4 321.999 1930.71 354.358 1930.91 386.818C1931.21 419.278 1931.42 451.636 1931.62 484.298C1931.72 511.5 1931.82 538.701 1931.92 565.802C1931.11 647.71 1933.14 728.606 1933.03 810.413C1933.03 832.356 1933.24 854.3 1933.34 876.142C1933.44 909.006 1933.44 941.971 1933.24 974.836C1933.03 1007.7 1932.53 1040.67 1931.62 1073.53C1931.21 1096.38 1930.71 1119.24 1930.2 1142.09C1913.21 1142.39 1896.22 1142.6 1879.22 1142.7C1853.84 1142.7 1828.45 1142.49 1802.96 1142.29C1777.47 1142.09 1752.08 1141.99 1726.6 1141.79C1406.27 1139.06 1086.65 1136.02 763.991 1160.29C630.478 1169.39 498.989 1153.21 367.904 1137.64C350.406 1135.92 332.907 1134.2 315.308 1132.79C280.21 1129.85 245.113 1127.63 209.712 1126.42C192.517 1125.81 175.423 1125.4 158.228 1125.3C141.034 1125.1 123.94 1125.2 106.745 1125.3C89.5504 1125.51 72.4567 1126.01 55.3631 1126.72C35.6397 1127.43 15.9162 1128.44 -3.80723 1129.85C-1.9866 1106.8 -0.570558 1083.64 0.339754 1060.59C4.28444 996.375 3.27298 931.657 0.238608 866.94C-3.0992 785.335 -11.4943 704.742 -15.439 623.744C-16.4505 603.52 -17.1585 583.194 -17.4619 562.97C-9.97712 351.324 -14.023 140.993 -13.6184 -70.7544C-13.2138 -106.753 -12.8092 -129 -12.8092 -129Z" stroke="#BBCAED" stroke-width="2" stroke-miterlimit="10"/>
<path d="M-0.368164 1056.74C19.4564 1056.04 39.1799 1055.53 59.0044 1055.13C78.829 1054.82 98.5524 1054.62 118.377 1054.62C134.965 1054.62 151.452 1054.82 168.04 1055.02C184.526 1055.23 201.114 1055.53 217.702 1055.83C268.275 1056.14 318.848 1057.15 369.421 1063.22C654.652 1096.59 931.792 1082.43 1215 1065.24C1263.55 1063.22 1312.1 1062.2 1360.65 1061.19C1534.62 1061.19 1709.6 1077.37 1883.17 1066.15C1899.76 1065.84 1916.24 1065.64 1932.83 1065.74" stroke="#BBCAED" stroke-width="2" stroke-miterlimit="10"/>
<path d="M1.6543 987.172C23.1984 986.97 44.7424 986.869 66.2865 986.869C87.8306 986.869 109.273 986.97 131.02 987.071C551.382 1004.57 971.137 994.453 1391.9 985.352C1483.95 983.33 1575.99 993.442 1668.03 995.464C1745.91 996.475 1822.79 990.408 1900.67 984.341C1912.8 983.33 1923.93 986.363 1934.65 986.667" stroke="#BBCAED" stroke-width="2" stroke-miterlimit="10"/>
<path d="M1.95801 919.118C23.5021 920.736 44.945 921.848 66.489 922.657C88.0331 923.466 109.577 923.972 131.324 924.174C504.855 921.646 876.06 921.646 1249.29 903.444C1361.56 898.388 1472.82 911.534 1585.09 916.59C1699.39 921.646 1812.67 914.568 1925.95 902.433C1928.99 902.433 1932.02 903.444 1933.84 905.871" stroke="#BBCAED" stroke-width="2" stroke-miterlimit="10"/>
<path d="M0.643555 854.906C21.783 856.727 43.0237 858.142 64.1631 859.356C102.902 860.67 141.742 861.479 180.481 861.985C733.445 869.063 1285.7 801.312 1838.87 822.75C1869.92 824.368 1900.97 826.289 1932.02 828.615" stroke="#BBCAED" stroke-width="2" stroke-miterlimit="10"/>
<path d="M-3.50391 792.11C15.9161 794.739 35.3361 797.065 54.8572 799.088C105.734 803.84 156.61 807.076 207.486 808.795C232.975 809.705 258.363 810.211 283.851 810.413C623.196 809.402 956.977 757.83 1295.82 739.628C1378.75 735.584 1460.68 731.539 1543.62 732.348C1586.61 732.348 1629.6 733.056 1672.68 734.674C1715.77 736.291 1758.86 738.82 1801.95 742.46C1844.94 746.1 1888.02 750.752 1930.91 756.617" stroke="#BBCAED" stroke-width="2" stroke-miterlimit="10"/>
<path d="M-9.57227 724.056C10.1512 727.696 29.9758 730.831 49.8003 733.561C67.0963 735.685 84.3922 737.606 101.789 739.224C190.899 745.696 279.806 749.538 369.421 745.999C399.259 744.786 429.3 742.763 459.34 739.73C616.116 723.55 772.892 705.348 929.769 686.54C968.811 682.192 1007.85 677.945 1046.9 674.102C1242.01 654.687 1436.91 642.856 1633.64 654.181C1665.5 656.001 1697.57 658.327 1729.63 661.361C1793.86 667.327 1858.49 675.821 1924.03 687.147C1927.07 687.147 1929.09 686.135 1932.33 685.63" stroke="#BBCAED" stroke-width="2" stroke-miterlimit="10"/>
<path d="M-15.1357 647.912C4.78999 650.642 24.7157 653.069 44.6414 655.091C62.8477 656.912 81.0539 658.529 99.3613 659.743C114.735 660.754 130.009 661.563 145.282 662.17C160.555 662.777 175.828 663.282 191.101 663.586C279.401 664.799 367.398 664.799 456.406 654.687C756.809 621.317 1050.13 579.857 1349.22 579.453C1388.16 578.947 1427.1 579.048 1466.04 579.453C1621.71 581.475 1777.27 591.587 1932.93 611.711" stroke="#BBCAED" stroke-width="2" stroke-miterlimit="10"/>
<path d="M-18.8779 562.768C-4.00949 562.768 10.7578 562.768 25.6262 562.869C40.3935 562.97 55.1608 563.173 69.9281 563.375C90.3596 563.274 110.69 563.577 131.02 564.184C144.574 564.386 158.127 564.892 171.782 565.397C185.335 565.903 198.889 566.611 212.443 567.217C263.622 570.453 315.004 572.577 366.387 572.274C383.48 572.274 400.675 571.768 417.87 571.161C458.429 570.656 496.865 565.6 537.323 560.544C897.402 518.073 1259.5 500.882 1621.91 514.635C1662.17 516.151 1702.42 517.972 1742.68 520.196C1774.54 522.118 1806.5 524.342 1838.36 526.87C1870.22 529.398 1902.08 532.23 1933.94 535.364" stroke="#BBCAED" stroke-width="2" stroke-miterlimit="10"/>
<path d="M-18.1699 475.905C23.8056 468.726 66.0846 467.613 108.364 468.523C122.423 468.827 136.583 469.332 150.642 469.939C180.582 471.759 210.217 472.77 239.853 473.175C269.489 473.579 269.489 473.579 284.357 473.681C646.459 474.692 1005.53 438.288 1367.63 430.199C1526.43 426.154 1686.24 426.154 1844.53 441.827C1873.97 444.962 1903.4 448.603 1932.83 453.052" stroke="#BBCAED" stroke-width="2" stroke-miterlimit="10"/>
<path d="M-13.3145 391.672C28.8634 380.043 71.3446 380.649 114.129 384.29C242.989 398.851 371.444 405.93 500.911 399.862C978.319 377.616 1454.72 329.078 1930.61 372.155" stroke="#BBCAED" stroke-width="2" stroke-miterlimit="10"/>
<path d="M-8.25781 315.426C35.4372 310.572 78.9299 311.28 122.524 313.404C236.819 320.988 350.102 327.055 464.397 324.022C952.931 311.887 1440.45 257.282 1928.58 295.303" stroke="#BBCAED" stroke-width="2" stroke-miterlimit="10"/>
<path d="M-8.86426 242.013C16.6245 242.013 42.1132 242.013 67.5009 242.013C92.8885 242.013 118.377 242.013 143.765 242.013C578.692 251.113 1011.6 243.024 1447.53 213.699C1608.36 202.575 1767.16 218.755 1926.76 222.597" stroke="#BBCAED" stroke-width="2" stroke-miterlimit="10"/>
<path d="M-13.3145 168.397C74.9859 169.307 161.971 169.307 250.272 170.217C272.321 170.419 294.169 170.722 316.117 171.026C700.168 183.464 1082.5 167.284 1467.87 136.948C1574.07 128.858 1678.25 148.071 1783.44 156.161C1830.98 160.206 1878.52 159.195 1925.35 153.431" stroke="#BBCAED" stroke-width="2" stroke-miterlimit="10"/>
<path d="M-15.8438 93.2637C86.1113 96.4996 189.28 99.5332 291.134 96.803C308.126 96.7018 325.119 96.4996 342.111 96.2974C359.104 96.0951 376.096 95.8929 393.089 95.6906C413.52 95.3873 433.952 95.0839 454.383 94.6794C485.03 94.0727 515.678 93.3648 546.325 92.4548C572.623 91.5447 597.909 89.5223 624.207 90.5335C876.06 96.6007 1124.88 96.6007 1378.76 70.3093C1401.01 68.2869 1422.25 67.2757 1444.9 67.9835C1470.29 67.6801 1495.58 67.9835 1520.87 68.5902C1622.11 71.1182 1723.06 80.118 1824.81 89.5223C1859.2 92.5559 1893.59 90.5335 1927.67 86.4886" stroke="#BBCAED" stroke-width="2" stroke-miterlimit="10"/>
<path d="M-15.2363 20.6589C87.1232 27.7374 189.281 20.6589 291.134 15.4007C308.127 14.2883 325.119 13.176 342.112 12.0637C359.104 10.9513 376.097 9.73789 393.089 8.62556C412.914 7.41211 432.739 6.29976 452.664 5.38968C512.138 2.65941 571.713 1.64821 631.187 4.68183C648.584 5.59192 665.981 6.60314 683.277 7.81659C787.255 14.6928 890.727 24.906 995.413 22.6814C1019.59 21.8724 1043.76 21.0634 1067.93 20.0522C1333.64 9.23227 1597.43 -12.2054 1866.28 15.6029C1887.52 18.6365 1908.76 18.6365 1930.2 17.9287" stroke="#BBCAED" stroke-width="2" stroke-miterlimit="10"/>
<path d="M1855.25 -137.899C1860.21 -118.888 1862.23 -98.6637 1861.22 -79.4507C1860.72 -54.9795 1860.11 -30.6093 1859.4 -6.23921C1859.1 19.2433 1858.39 44.6246 1857.48 70.006C1856.57 95.3873 1855.66 120.769 1854.75 146.15C1850.09 239.181 1855.15 331.201 1858.79 423.929C1859.5 445.063 1860.21 466.096 1860.82 487.13C1861.42 513.32 1862.03 539.611 1862.74 565.903C1863.14 644.575 1865.17 723.449 1865.97 802.425C1865.67 830.637 1865.27 858.951 1864.76 887.265C1863.95 929.736 1862.84 972.207 1861.32 1014.68C1859.8 1057.15 1858.09 1099.62 1856.06 1142.09" stroke="#BBCAED" stroke-width="2" stroke-miterlimit="10"/>
<path d="M1777.27 -144.168C1781.32 -119.899 1783.34 -94.6189 1782.33 -70.3499C1781.11 -20.295 1780.51 29.6587 1780.41 79.7135C1780.41 104.69 1780.41 129.667 1780.61 154.644C1782.33 259.304 1783.34 364.47 1788.09 469.433C1787.79 506.444 1789.81 543.252 1791.63 579.858C1793.55 616.767 1796.28 653.676 1798.41 690.585C1800.53 727.494 1802.05 764.504 1801.54 801.515C1800.53 895.254 1795.48 990.307 1782.43 1083.34C1779.39 1103.56 1780.41 1122.78 1780.2 1142.49" stroke="#BBCAED" stroke-width="2" stroke-miterlimit="10"/>
<path d="M1696.45 -147.101C1695.14 -119.09 1694.53 -91.0797 1694.53 -63.1703C1694.53 -37.3845 1695.04 -11.6998 1696.05 13.9849C1696.96 39.6696 1698.27 65.2532 1699.69 90.8368C1709.5 218.856 1703.43 347.279 1714.86 475.804C1716.89 506.14 1719.21 536.375 1721.64 566.712C1725.28 612.216 1729.12 657.619 1732.06 703.023C1733.78 728.809 1735.09 754.695 1736 780.481C1739.95 894.343 1734.89 1005.58 1708.59 1121.87C1707.58 1127.93 1707.58 1135.01 1709.1 1141.08" stroke="#BBCAED" stroke-width="2" stroke-miterlimit="10"/>
<path d="M1616.65 -145.382C1606.94 -115.955 1602.29 -85.8214 1600.77 -55.384C1598.24 -22.8231 1600.26 8.52442 1604.31 40.8831C1607.75 76.4777 1613.01 111.769 1618.07 146.858C1639.71 265.372 1632.63 384.694 1637.18 504.32C1636.88 528.994 1637.18 553.667 1638.09 578.341C1639.41 615.25 1641.73 652.26 1644.16 689.27C1646.59 718.595 1648.41 747.819 1649.73 777.144C1655.79 898.388 1653.77 1020.74 1638.7 1141.38" stroke="#BBCAED" stroke-width="2" stroke-miterlimit="10"/>
<path d="M1541.4 -142.045C1527.84 -109.18 1521.07 -75.6082 1519.04 -41.5304C1516.31 -10.6886 1517.32 20.6589 1524.4 50.9952C1560.82 206.721 1565.87 367.504 1557.07 526.263C1554.75 555.791 1553.33 585.318 1552.62 614.845C1552.62 650.844 1552.62 686.742 1552.83 722.64C1553.84 862.996 1556.87 1002.54 1562.64 1143.1" stroke="#BBCAED" stroke-width="2" stroke-miterlimit="10"/>
<path d="M1464.53 -141.337C1455.53 -106.349 1446.42 -71.1588 1441.16 -35.6654C1435.4 -6.74483 1432.36 22.5802 1439.44 51.9053C1476.87 224.822 1485.97 403.806 1476.16 580.464C1475.15 607.059 1474.44 633.654 1474.03 660.249C1474.24 689.978 1473.63 719.607 1473.12 749.235C1468.78 854.906 1476.87 959.061 1486.98 1064.23C1490.02 1090.52 1489 1116.81 1484.86 1143.4" stroke="#BBCAED" stroke-width="2" stroke-miterlimit="10"/>
<path d="M1388.67 -139.921C1381.69 -105.135 1374.2 -70.2488 1369.55 -35.1598C1362.67 9.5356 1362.67 54.0288 1371.57 99.5332C1395.95 250.203 1395.95 402.896 1402.22 555.083C1402.22 591.689 1402.73 628.8 1404.55 666.012C1421.34 823.559 1420.33 982.319 1413.75 1141.48" stroke="#BBCAED" stroke-width="2" stroke-miterlimit="10"/>
<path d="M1315.44 -137.191C1310.68 -105.843 1306.33 -74.6981 1303.5 -43.5528C1300.57 -15.6435 1300.06 12.1648 1301.07 39.973C1316.15 189.834 1316.55 340.504 1319.28 491.579C1319.79 521.814 1320.49 552.049 1321.3 582.284C1322.21 610.093 1321.2 638.407 1325.25 667.732C1349.52 823.458 1357.62 981.206 1345.28 1138.95" stroke="#BBCAED" stroke-width="2" stroke-miterlimit="10"/>
<path d="M1242.01 -133.854C1235.53 -93.001 1230.98 -52.1481 1229.16 -11.093C1227.04 28.7486 1227.04 67.1745 1230.68 106.713C1243.73 236.451 1238.87 366.189 1239.98 496.129C1240.18 522.117 1240.69 548.106 1241.6 574.195C1243.32 598.059 1243.32 622.328 1245.34 646.597C1262.54 809.402 1289.85 974.229 1269.92 1138.45" stroke="#BBCAED" stroke-width="2" stroke-miterlimit="10"/>
<path d="M1171.41 -131.528C1166.35 -94.9222 1162.81 -58.3165 1161.29 -21.8118C1159.27 16.6141 1159.27 54.0288 1164.02 92.4548C1173.33 200.047 1173.93 308.348 1175.15 416.345C1175.55 452.344 1176.06 488.343 1176.87 524.241C1176.26 548.51 1176.16 572.678 1176.46 596.947C1176.77 621.216 1177.58 645.485 1178.59 669.754C1192.55 825.48 1197.6 982.218 1189.31 1139.06" stroke="#BBCAED" stroke-width="2" stroke-miterlimit="10"/>
<path d="M1100 -130.618C1093.73 -91.8886 1089.07 -53.0582 1087.05 -13.9244C1083.51 26.7262 1084.42 67.1746 1089.98 108.735C1103.94 235.035 1105.56 361.436 1113.55 487.736C1115.17 513.017 1116.99 538.297 1119.22 563.577C1122.05 595.632 1124.58 627.688 1126.8 659.743C1139.04 819.514 1148.14 981.307 1118.1 1139.86" stroke="#BBCAED" stroke-width="2" stroke-miterlimit="10"/>
<path d="M1026.87 -129.91C1022.11 -105.034 1018.88 -79.9564 1016.75 -54.9795C1014.63 -30.0026 1013.62 -4.92467 1013.52 20.1533C1016.96 179.823 1025.96 339.089 1037.19 497.849C1039.41 529.6 1041.74 561.352 1044.27 593.104C1047.4 621.519 1050.44 650.035 1053.27 678.653C1068.34 822.548 1079.46 965.128 1044.06 1110.74C1041.03 1120.85 1041.03 1130.97 1042.34 1141.28" stroke="#BBCAED" stroke-width="2" stroke-miterlimit="10"/>
<path d="M952.425 -129.506C944.637 -87.2371 939.984 -44.4629 937.86 -1.28431C935.736 41.8943 936.04 85.3763 937.86 129.061C947.267 238.17 950.908 347.785 955.156 457.198C956.269 484.602 957.28 511.904 958.595 539.308C959.506 567.925 961.427 596.34 964.057 624.755C966.586 653.17 969.822 681.484 973.16 709.798C995.513 853.895 1003.61 1001.53 967.901 1144.01" stroke="#BBCAED" stroke-width="2" stroke-miterlimit="10"/>
<path d="M876.97 -129.607C869.384 -92.8999 864.125 -55.8896 861.495 -18.6771C858.865 18.5354 858.865 55.9501 861.596 93.466C867.766 232.507 877.881 370.739 884.253 509.275C885.568 536.982 886.68 564.689 887.793 592.498C890.018 636.687 893.862 680.574 898.818 724.258C917.429 864.917 938.669 1010.53 897.301 1148.76" stroke="#BBCAED" stroke-width="2" stroke-miterlimit="10"/>
<path d="M799.493 -130.011C794.133 -95.6301 790.694 -61.249 788.974 -26.8679C787.255 7.5132 787.052 41.9954 788.064 76.6799C790.188 136.948 792.211 195.598 801.314 256.271C807.888 303.292 810.923 349.807 812.541 396.222C814.16 442.636 814.463 488.95 815.373 535.567C814.463 574.903 816.486 613.328 820.532 652.766C831.658 819.615 864.024 990.51 825.994 1156.55" stroke="#BBCAED" stroke-width="2" stroke-miterlimit="10"/>
<path d="M731.22 -131.831C730.613 -107.461 730.208 -83.0911 730.006 -58.7209C729.905 -34.3508 730.006 -10.0818 730.411 14.1872C732.333 123.802 739.413 232.002 749.527 341.212C752.056 373.571 751.348 405.727 749.629 437.783C748.01 469.939 745.482 502.096 744.47 534.555C743.256 561.959 742.346 589.363 741.739 616.868C741.031 644.272 740.627 671.776 740.323 699.18C742.447 853.794 743.459 1008.51 745.583 1162.82" stroke="#BBCAED" stroke-width="2" stroke-miterlimit="10"/>
<path d="M662.946 -135.168C662.137 -98.9671 662.339 -62.9681 663.351 -26.969C664.362 9.03001 666.082 44.9279 668.206 80.8259C677.006 202.575 684.794 324.022 676.196 444.558C674.477 468.624 672.151 492.691 668.914 516.758C666.689 544.971 664.868 573.184 663.351 601.497C661.834 629.71 660.721 658.024 659.811 686.237C657.586 844.794 657.586 1004.57 663.553 1163.73" stroke="#BBCAED" stroke-width="2" stroke-miterlimit="10"/>
<path d="M592.346 -139.213C589.514 -87.1359 586.176 -35.0587 584.457 17.2209C582.737 69.5004 583.142 69.5003 583.344 95.6907C588.705 227.856 589.615 359.414 585.974 491.377C585.266 517.769 584.356 544.162 583.243 570.656C581.625 595.43 580.31 620.306 579.096 645.08C577.882 669.956 576.972 694.731 576.062 719.607C576.669 865.929 564.531 1012.55 576.567 1159.58" stroke="#BBCAED" stroke-width="2" stroke-miterlimit="10"/>
<path d="M515.678 -143.865C516.993 -137.09 515.981 -130.011 514.97 -122.933C504.35 -75.9115 491.504 -30.9127 482.603 14.1872C473.702 59.2871 468.948 104.589 474.309 152.116C486.649 271.439 498.787 391.773 502.023 512.208C502.832 538.196 503.237 564.083 503.439 590.071C503.844 616.059 504.046 641.946 503.945 667.934C503.945 693.922 503.642 719.91 503.035 745.898C504.754 860.974 486.548 975.24 481.491 1090.52C480.479 1110.74 485.536 1131.98 492.111 1151.19" stroke="#BBCAED" stroke-width="2" stroke-miterlimit="10"/>
<path d="M431.828 -145.887C423.129 -113.63 413.622 -81.1698 405.429 -48.5078C397.236 -15.8457 397.54 -15.7446 394.303 0.7381C385.807 34.5125 383.379 68.9947 384.593 103.679C385.503 121.881 386.515 140.083 388.538 158.284C407.755 288.73 430.007 413.109 436.784 543.049C437.694 564.184 438.301 585.419 438.605 606.553C439.212 638.811 439.11 670.967 438.504 703.124C437.897 735.28 436.683 767.336 435.469 799.391C436.076 913.658 410.79 1027.92 426.164 1141.89" stroke="#BBCAED" stroke-width="2" stroke-miterlimit="10"/>
<path d="M349.798 -145.584C326.535 -77.0238 314.397 -5.32911 313.689 67.1746C312.981 139.678 314.498 115.611 316.724 139.88C329.873 276.394 357.182 411.896 361.531 549.016C362.846 571.566 363.959 594.116 364.97 616.666C366.791 650.44 368.207 684.315 369.016 718.191C369.926 752.066 370.331 786.043 370.331 820.02C370.331 908.5 366.184 997.487 358.092 1086.47C357.081 1102.65 359.104 1118.83 360.52 1134.61" stroke="#BBCAED" stroke-width="2" stroke-miterlimit="10"/>
<path d="M276.064 -140.629C270.703 -126.371 265.949 -112.012 261.802 -97.4503C241.169 -33.3396 237.527 32.2878 240.966 98.2187C242.686 131.184 246.226 164.149 250.272 197.014C261.094 285.495 274.243 374.481 279.503 464.276C281.526 492.894 283.549 521.511 285.572 550.128C288.606 593.003 291.438 635.98 293.865 679.057C295.585 703.326 296.9 727.494 297.81 751.561C298.72 775.729 299.226 799.795 299.327 823.963C301.654 925.59 285.47 1026.71 289.415 1129.35" stroke="#BBCAED" stroke-width="2" stroke-miterlimit="10"/>
<path d="M199.293 -135.371C180.177 -55.1817 165.005 27.7374 171.074 110.657C174.816 155.15 179.469 199.542 184.121 243.833C190.291 310.876 198.383 376.605 201.013 443.243C201.721 488.748 203.541 534.252 205.868 579.858C207.082 602.61 208.295 625.362 209.711 648.114C211.431 674.507 213.251 701 214.971 727.494C216.69 753.988 218.309 780.481 219.624 807.076C222.759 887.366 225.794 967.252 221.141 1046.73C219.927 1073.33 218.106 1099.92 215.578 1126.52" stroke="#BBCAED" stroke-width="2" stroke-miterlimit="10"/>
<path d="M126.974 -131.326C119.489 -84.5068 111.398 -37.9912 112.409 8.5244C115.949 146.554 124.446 284.079 128.491 421.806C129.098 441.524 129.503 461.142 129.908 480.86C129.806 502.399 129.908 523.938 129.908 545.476C130.11 567.015 130.413 588.453 130.717 609.991C131.324 638.71 132.133 667.428 132.942 696.045C133.751 739.123 135.167 782.099 136.583 825.076C137.999 868.052 139.213 911.028 139.82 954.005C140.326 982.622 140.73 1011.34 140.831 1039.96C140.932 1068.57 140.831 1097.29 140.528 1125.91" stroke="#BBCAED" stroke-width="2" stroke-miterlimit="10"/>
<path d="M59.3079 -129C45.6532 -2.70001 63.8595 124.712 64.8709 251.113C65.8824 359.313 55.7678 467.512 56.8804 575.206C56.8804 594.419 57.0827 613.733 57.3861 633.047C57.5884 660.552 58.4987 688.057 59.8136 715.562C61.1285 743.067 62.7469 770.47 64.3652 797.874C66.0847 825.278 67.8042 852.682 69.3213 880.085C70.8385 907.489 72.1534 934.893 72.8614 962.297C74.2775 1017.1 73.6706 1071.91 68.411 1126.92" stroke="#BBCAED" stroke-width="2" stroke-miterlimit="10"/>
</g>
<defs>
<clipPath id="clip0_2095_853">
<rect width="1942" height="1263" fill="white" transform="translate(-12 -129)"/>
</clipPath>
</defs>
</svg>
