<svg width="14" height="14" viewBox="0 0 14 14" fill="none" xmlns="http://www.w3.org/2000/svg">
<g clip-path="url(#clip0_2204_6)">
<path fill-rule="evenodd" clip-rule="evenodd" d="M14 7C14 5.61553 13.5895 4.26216 12.8203 3.11101C12.0511 1.95987 10.9579 1.06266 9.67879 0.532846C8.39971 0.00303303 6.99224 -0.13559 5.63437 0.134506C4.2765 0.404603 3.02922 1.07129 2.05026 2.05026C1.07129 3.02922 0.404603 4.2765 0.134506 5.63437C-0.13559 6.99224 0.00303303 8.39971 0.532846 9.67879C1.06266 10.9579 1.95987 12.0511 3.11101 12.8203C4.26216 13.5895 5.61553 14 7 14C8.85652 14 10.637 13.2625 11.9498 11.9498C13.2625 10.637 14 8.85652 14 7Z" fill="#3D2DB3"/>
<path d="M5.4959 3.92038C4.07403 3.66175 2.94951 3.93291 2.50176 4.70879C2.1668 5.2887 2.2625 6.05661 2.72962 6.8735C2.73865 6.89099 2.75112 6.90648 2.76629 6.91902C2.78146 6.93156 2.79901 6.94091 2.81788 6.94649C2.83676 6.95207 2.85657 6.95377 2.87612 6.95149C2.89567 6.94921 2.91456 6.94299 2.93164 6.93322C2.94873 6.92345 2.96366 6.91032 2.97553 6.89462C2.98741 6.87892 2.99598 6.86098 3.00074 6.84188C3.00549 6.82278 3.00634 6.80292 3.00321 6.78348C3.00009 6.76405 2.99306 6.74545 2.98255 6.72881C2.55873 5.98939 2.4767 5.3263 2.75469 4.8512C3.12725 4.20635 4.12985 3.96481 5.44463 4.20407L5.46856 4.21546C5.50527 4.21621 5.54091 4.20308 5.56836 4.1787C5.59582 4.15432 5.61307 4.12048 5.61666 4.08394C5.62026 4.0474 5.60994 4.01085 5.58777 3.98158C5.56559 3.95232 5.53319 3.93249 5.49704 3.92607L5.4959 3.92038ZM3.41778 8.16207C4.05195 8.84151 4.78617 9.42012 5.59502 9.87789C7.6572 11.0696 9.85381 11.3932 10.9373 10.6492C10.9577 10.6361 10.9745 10.6181 10.986 10.5968C10.9976 10.5755 11.0036 10.5516 11.0034 10.5273C11.0022 10.5014 10.9941 10.4762 10.98 10.4544C10.9659 10.4326 10.9461 10.415 10.9229 10.4034C10.8997 10.3918 10.8738 10.3866 10.8479 10.3883C10.822 10.3901 10.797 10.3987 10.7755 10.4134C9.79798 11.0696 7.71644 10.7666 5.74086 9.6261C4.95878 9.18298 4.24912 8.62279 3.63653 7.96497C3.62196 7.94944 3.60429 7.93715 3.58466 7.9289C3.56503 7.92066 3.54388 7.91664 3.52259 7.91712C3.48392 7.91712 3.44682 7.93249 3.41947 7.95983C3.39213 7.98718 3.37676 8.02428 3.37676 8.06295C3.37695 8.09944 3.3903 8.13464 3.41436 8.16207H3.41778Z" fill="white"/>
<path d="M10.6432 7.69729C11.5741 6.59785 11.8965 5.49043 11.4522 4.71683C11.1229 4.14716 10.4268 3.84524 9.50278 3.83385C9.4641 3.83385 9.42701 3.84921 9.39966 3.87656C9.37231 3.90391 9.35695 3.94101 9.35695 3.97968C9.35695 4.01836 9.37231 4.05545 9.39966 4.0828C9.42701 4.11015 9.4641 4.12552 9.50278 4.12552C10.3345 4.13577 10.9338 4.39554 11.2027 4.86266C11.5741 5.50524 11.2847 6.49189 10.4234 7.50931C10.3984 7.53952 10.3865 7.5784 10.3903 7.6174C10.394 7.65639 10.4131 7.6923 10.4433 7.71723C10.4735 7.74216 10.5124 7.75407 10.5514 7.75033C10.5904 7.74659 10.6263 7.72751 10.6512 7.69729H10.6432ZM8.0228 3.7803C7.10905 3.98673 6.23252 4.33257 5.424 4.80569C3.30372 6.03844 1.90919 7.85338 2.10288 9.16816C2.10847 9.20654 2.12907 9.24112 2.16016 9.2643C2.19125 9.28748 2.23027 9.29737 2.26865 9.29178C2.30702 9.28619 2.34161 9.26558 2.36479 9.23449C2.38797 9.2034 2.39785 9.16438 2.39226 9.12601C2.21909 7.9582 3.53159 6.2401 5.57439 5.06318C6.35617 4.60328 7.20435 4.26701 8.08888 4.06627C8.12491 4.05984 8.15721 4.0401 8.17935 4.01096C8.2015 3.98183 8.21189 3.94543 8.20845 3.90899C8.205 3.87255 8.18798 3.83874 8.16077 3.81427C8.13355 3.7898 8.09813 3.77645 8.06154 3.77688C8.05055 3.77571 8.03948 3.77571 8.0285 3.77688L8.0228 3.7803Z" fill="white"/>
<path d="M4.80013 10.2676C5.28662 11.6268 6.08301 12.4642 6.97966 12.4642C7.63249 12.4642 8.23291 12.0187 8.70801 11.2349C8.72255 11.2121 8.73008 11.1855 8.72966 11.1585C8.72954 11.1266 8.71898 11.0957 8.69958 11.0703C8.68018 11.045 8.65301 11.0268 8.62224 11.0184C8.59148 11.01 8.5588 11.0119 8.52923 11.0238C8.49965 11.0358 8.4748 11.0571 8.4585 11.0845C8.03467 11.7897 7.514 12.1725 6.97738 12.1725C6.2334 12.1725 5.52246 11.4263 5.07243 10.1696C5.0612 10.1371 5.03883 10.1095 5.00926 10.0919C4.97969 10.0743 4.94484 10.0677 4.91087 10.0733C4.87691 10.0789 4.84601 10.0963 4.82366 10.1225C4.80131 10.1486 4.78894 10.1819 4.78874 10.2163C4.78835 10.2338 4.79144 10.2513 4.79785 10.2676H4.80013ZM9.52148 9.90414C9.78657 9.02762 9.91831 8.11623 9.91227 7.20052C9.91227 4.78516 9.06348 2.70248 7.86149 2.16472C7.84376 2.15745 7.82482 2.15358 7.80566 2.15332C7.77239 2.15309 7.74003 2.16425 7.71396 2.18494C7.6879 2.20563 7.6697 2.23462 7.66238 2.26709C7.65506 2.29955 7.65907 2.33354 7.67373 2.36342C7.6884 2.39329 7.71284 2.41725 7.743 2.43132C8.8151 2.91097 9.61833 4.8877 9.61833 7.20052C9.62504 8.08783 9.49869 8.97113 9.24349 9.82097C9.23892 9.83572 9.23661 9.85109 9.23665 9.86654C9.23665 9.90522 9.25202 9.94231 9.27937 9.96966C9.30672 9.99701 9.34381 10.0124 9.38249 10.0124C9.414 10.0122 9.44462 10.002 9.46986 9.98309C9.49509 9.96422 9.51359 9.93774 9.52262 9.90756L9.52148 9.90414ZM11.9904 9.67627C11.9918 9.53786 11.9519 9.40216 11.876 9.28642C11.8001 9.17067 11.6915 9.08009 11.564 9.02618C11.4365 8.97227 11.2959 8.95746 11.16 8.98363C11.0241 9.0098 10.899 9.07577 10.8006 9.17317C10.7023 9.27056 10.6351 9.39499 10.6075 9.53065C10.58 9.66631 10.5935 9.80709 10.6461 9.9351C10.6988 10.0631 10.7883 10.1726 10.9033 10.2496C11.0183 10.3267 11.1536 10.3678 11.292 10.3678C11.3837 10.368 11.4744 10.3501 11.5592 10.3151C11.6439 10.2801 11.7209 10.2288 11.7858 10.164C11.8506 10.0993 11.9021 10.0223 11.9372 9.93767C11.9723 9.853 11.9904 9.76224 11.9904 9.67058V9.67627ZM11.6987 9.67627C11.6987 9.75672 11.6749 9.83536 11.6302 9.90224C11.5855 9.96913 11.522 10.0213 11.4476 10.052C11.3733 10.0828 11.2915 10.0909 11.2126 10.0752C11.1337 10.0595 11.0613 10.0208 11.0044 9.96388C10.9475 9.907 10.9088 9.83452 10.8931 9.75562C10.8774 9.67672 10.8854 9.59494 10.9162 9.52062C10.947 9.4463 10.9991 9.38278 11.066 9.33808C11.1329 9.29339 11.2115 9.26953 11.292 9.26953C11.3454 9.26938 11.3984 9.2798 11.4478 9.30019C11.4972 9.32058 11.5421 9.35053 11.5799 9.38833C11.6177 9.42613 11.6477 9.47103 11.6681 9.52044C11.6885 9.56986 11.6989 9.62282 11.6987 9.67627ZM2.65251 10.5592C2.79064 10.5592 2.92567 10.5183 3.04052 10.4415C3.15537 10.3648 3.24489 10.2557 3.29775 10.1281C3.35061 10.0005 3.36444 9.86007 3.33749 9.72459C3.31054 9.58911 3.24403 9.46467 3.14635 9.367C3.04868 9.26932 2.92424 9.20281 2.78876 9.17586C2.65328 9.14891 2.51286 9.16274 2.38524 9.2156C2.25762 9.26846 2.14855 9.35798 2.0718 9.47283C1.99506 9.58768 1.9541 9.72271 1.9541 9.86084C1.9541 10.0461 2.02768 10.2237 2.15866 10.3547C2.28964 10.4857 2.46728 10.5592 2.65251 10.5592ZM2.65251 10.2676C2.57206 10.2676 2.49342 10.2437 2.42653 10.199C2.35965 10.1543 2.30751 10.0908 2.27673 10.0165C2.24594 9.94217 2.23789 9.86039 2.25358 9.78149C2.26928 9.70259 2.30802 9.63012 2.3649 9.57324C2.42178 9.51635 2.49426 9.47761 2.57316 9.46192C2.65206 9.44623 2.73384 9.45428 2.80816 9.48507C2.88248 9.51585 2.946 9.56798 2.9907 9.63487C3.03539 9.70176 3.05924 9.7804 3.05924 9.86084C3.05924 9.96872 3.01639 10.0722 2.94011 10.1485C2.86384 10.2247 2.76038 10.2676 2.65251 10.2676Z" fill="white"/>
<path d="M6.97965 2.97701C7.11779 2.97701 7.25282 2.93605 7.36767 2.85931C7.48252 2.78257 7.57204 2.67349 7.6249 2.54587C7.67776 2.41826 7.69159 2.27783 7.66464 2.14235C7.63769 2.00688 7.57118 1.88243 7.4735 1.78476C7.37583 1.68708 7.25138 1.62057 7.11591 1.59362C6.98043 1.56667 6.84 1.5805 6.71239 1.63336C6.58477 1.68622 6.47569 1.77574 6.39895 1.89059C6.32221 2.00544 6.28125 2.14047 6.28125 2.27861C6.28125 2.37027 6.29932 2.46103 6.33443 2.5457C6.36955 2.63037 6.42101 2.70729 6.48588 2.77205C6.55074 2.83681 6.62775 2.88815 6.71247 2.92312C6.7972 2.9581 6.88799 2.97602 6.97965 2.97587V2.97701ZM6.97965 2.68534C6.89916 2.68557 6.82041 2.66191 6.75337 2.61735C6.68634 2.57279 6.63403 2.50935 6.60307 2.43505C6.57211 2.36075 6.56389 2.27893 6.57945 2.19996C6.59502 2.12098 6.63367 2.0484 6.69051 1.9914C6.74734 1.93441 6.81981 1.89555 6.89875 1.87977C6.97768 1.86398 7.05952 1.87197 7.1339 1.90272C7.20829 1.93347 7.27188 1.9856 7.31663 2.05252C7.36137 2.11943 7.38525 2.19811 7.38525 2.27861C7.38525 2.38618 7.34252 2.48934 7.26646 2.56541C7.19039 2.64147 7.08723 2.6842 6.97965 2.6842V2.68534ZM7.08561 6.97945C7.02083 6.99353 6.9539 6.99471 6.88866 6.98291C6.82342 6.97112 6.76114 6.94659 6.70539 6.91072C6.64963 6.87486 6.60148 6.82836 6.5637 6.77388C6.52592 6.7194 6.49924 6.65801 6.48519 6.59322C6.47796 6.55797 6.47415 6.52211 6.4738 6.48613C6.47381 6.3909 6.50077 6.29762 6.55156 6.21706C6.60234 6.1365 6.67488 6.07196 6.7608 6.03088C6.84671 5.9898 6.94249 5.97386 7.03708 5.98491C7.13166 5.99596 7.22119 6.03355 7.29533 6.09332C7.36946 6.1531 7.42517 6.23262 7.45602 6.32272C7.48687 6.41281 7.4916 6.50979 7.46967 6.60246C7.44774 6.69513 7.40004 6.77971 7.33208 6.84641C7.26412 6.91312 7.17867 6.95925 7.08561 6.97945Z" fill="white"/>
</g>
<defs>
<clipPath id="clip0_2204_6">
<rect width="14" height="14" fill="white"/>
</clipPath>
</defs>
</svg>
