<svg width="15" height="16" viewBox="0 0 15 16" fill="none" xmlns="http://www.w3.org/2000/svg">
<g clip-path="url(#clip0_2204_26)">
<path d="M13.5352 0.874512H1.46484C0.655833 0.874512 0 1.53034 0 2.33936V14.4097C0 15.2187 0.655833 15.8745 1.46484 15.8745H13.5352C14.3442 15.8745 15 15.2187 15 14.4097V2.33936C15 1.53034 14.3442 0.874512 13.5352 0.874512Z" fill="#3D2DB3"/>
<path d="M13.5352 0.874512H1.46484C0.655833 0.874512 0 1.53034 0 2.33936V14.4097C0 15.2187 0.655833 15.8745 1.46484 15.8745H13.5352C14.3442 15.8745 15 15.2187 15 14.4097V2.33936C15 1.53034 14.3442 0.874512 13.5352 0.874512Z" fill="#3D2DB3"/>
<path fill-rule="evenodd" clip-rule="evenodd" d="M9.28532 12.8108V14.2774C9.52374 14.3996 9.80572 14.4913 10.1313 14.5524C10.4568 14.6135 10.7999 14.644 11.1606 14.644C11.5121 14.644 11.8461 14.6104 12.1625 14.5432C12.4788 14.476 12.7562 14.3652 12.9947 14.2109C13.2331 14.0566 13.4218 13.855 13.5609 13.6059C13.7 13.3569 13.7695 13.0491 13.7695 12.6824C13.7695 12.4166 13.7298 12.1836 13.6503 11.9835C13.5708 11.7834 13.4562 11.6054 13.3064 11.4496C13.1567 11.2937 12.9771 11.1539 12.7677 11.0302C12.5583 10.9064 12.3222 10.7896 12.0593 10.6796C11.8667 10.6001 11.694 10.523 11.5412 10.4481C11.3883 10.3733 11.2584 10.2969 11.1514 10.219C11.0445 10.1411 10.9619 10.0586 10.9039 9.97148C10.8458 9.88439 10.8167 9.78586 10.8167 9.67585C10.8167 9.57504 10.8427 9.48413 10.8947 9.40315C10.9467 9.32218 11.02 9.25269 11.1148 9.19462C11.2095 9.13658 11.3257 9.09149 11.4632 9.05941C11.6008 9.02733 11.7536 9.01131 11.9217 9.01131C12.044 9.01131 12.1731 9.02048 12.3092 9.03879C12.4452 9.05713 12.582 9.0854 12.7196 9.12357C12.8571 9.16178 12.9908 9.20991 13.1208 9.26795C13.2507 9.32602 13.3706 9.39322 13.4807 9.46963V8.09924C13.2575 8.01369 13.0138 7.95029 12.7494 7.90904C12.485 7.86779 12.1816 7.84717 11.8392 7.84717C11.4907 7.84717 11.1606 7.88461 10.8488 7.95946C10.5371 8.03432 10.2627 8.15118 10.0258 8.31006C9.78891 8.46896 9.6017 8.67138 9.46415 8.91735C9.3266 9.1633 9.25781 9.45738 9.25781 9.7996C9.25781 10.2365 9.38391 10.6093 9.63609 10.9179C9.88825 11.2265 10.2711 11.4877 10.7846 11.7016C10.9864 11.7841 11.1744 11.8651 11.3486 11.9445C11.5228 12.024 11.6734 12.1065 11.8002 12.192C11.9271 12.2776 12.0272 12.3708 12.1006 12.4716C12.1739 12.5724 12.2106 12.687 12.2106 12.8154C12.2106 12.9101 12.1877 12.9979 12.1418 13.0789C12.096 13.1599 12.0264 13.2301 11.9332 13.2897C11.84 13.3493 11.7238 13.3959 11.5847 13.4295C11.4456 13.4631 11.2829 13.4799 11.0964 13.4799C10.7785 13.4799 10.4637 13.4241 10.1519 13.3126C9.84012 13.2011 9.55125 13.0338 9.28532 12.8108ZM6.81973 9.19723H8.70117V7.99365H3.45703V9.19723H5.32928V14.5562H6.81973V9.19723Z" fill="#F3BEF3"/>
</g>
<defs>
<clipPath id="clip0_2204_26">
<rect width="15" height="15" fill="white" transform="translate(0 0.874512)"/>
</clipPath>
</defs>
</svg>
