<svg width="15" height="15" viewBox="0 0 15 15" fill="none" xmlns="http://www.w3.org/2000/svg">
<g clip-path="url(#clip0_2203_3)">
<path d="M5.97656 6.67963V4.36682H7.64531C8.5575 4.36682 9.09094 4.79526 9.09094 5.52651C9.09094 6.27838 8.52469 6.67963 7.43719 6.67963H5.97656ZM5.97656 10.2065H7.75594C8.86594 10.2065 9.45281 9.75651 9.45281 8.91557C9.45281 8.08588 8.84344 7.65182 7.68469 7.65182H5.97656V10.2065Z" fill="#3D2DB3"/>
<path d="M3.75195 0C2.75739 0 1.80356 0.395088 1.1003 1.09835C0.397041 1.80161 0.00195313 2.75544 0.00195312 3.75V11.25C0.00195313 12.2446 0.397041 13.1984 1.1003 13.9017C1.80356 14.6049 2.75739 15 3.75195 15H11.252C12.2465 15 13.2003 14.6049 13.9036 13.9017C14.6069 13.1984 15.002 12.2446 15.002 11.25V3.75C15.002 2.75544 14.6069 1.80161 13.9036 1.09835C13.2003 0.395088 12.2465 0 11.252 0L3.75195 0ZM4.7457 11.25V3.32344H7.93227C9.42008 3.32344 10.3163 4.08188 10.3163 5.30156C10.3163 6.13031 9.70695 6.87188 8.92602 7.00406V7.09781C9.99758 7.2075 10.711 7.97063 10.711 9.00375C10.711 10.3988 9.69477 11.25 8.00352 11.25H4.7457Z" fill="#3D2DB3"/>
</g>
<defs>
<clipPath id="clip0_2203_3">
<rect width="15" height="15" fill="white"/>
</clipPath>
</defs>
</svg>
