<svg width="180" height="128" viewBox="0 0 180 128" fill="none" xmlns="http://www.w3.org/2000/svg">
<rect x="14.585" y="15.4633" width="164.415" height="111.537" fill="#FAFAFA" stroke="black" stroke-width="2"/>
<rect x="7.79297" y="8.23163" width="164.415" height="111.537" fill="#FAFAFA" stroke="black" stroke-width="2"/>
<rect x="1" y="1" width="164.415" height="111.537" fill="#FAFAFA" stroke="black" stroke-width="2"/>
<g clip-path="url(#clip0_2095_235)">
<path d="M77.67 -52.1676C76.9364 -52.1319 74.5391 -51.9351 72.3743 -51.7383C43.3736 -49.1084 16.162 -34.5096 -2.05067 -11.8422C-15.6118 5.04657 -23.6447 24.7263 -25.7557 46.356C-26.2209 51.0255 -26.3282 60.7043 -25.9525 64.6402C-25.8273 65.9105 -25.6842 67.4491 -25.6305 68.0395C-24.9507 75.5714 -22.6249 85.5544 -19.7266 93.5694C-11.7474 115.611 3.22707 134.557 22.8352 147.438C37.7739 157.242 54.3406 163.039 72.5711 164.864C77.0796 165.311 87.8855 165.311 92.3403 164.864C118.353 162.269 141.325 151.499 159.394 133.448C175.102 117.758 185.622 97.6842 189.558 75.9113C190.828 68.7909 191.186 64.5329 191.186 56.3211C191.168 50.3099 191.007 47.0001 190.47 42.9926C187.662 21.7385 179.414 2.91759 165.584 -13.7207C163.026 -16.8158 155.87 -23.9362 152.632 -26.6377C135.206 -41.1291 114.9 -49.6451 92.6265 -51.7562C88.9947 -52.0961 80.7829 -52.3287 77.67 -52.1676ZM91.9825 -48.4106C127.943 -45.1008 159.573 -23.8468 176.068 8.0522C182.598 20.7188 186.212 33.2601 187.59 48.2703C187.84 50.8108 187.912 59.0226 187.715 62.4039C187.107 73.7824 184.638 84.8388 180.308 95.7699C178.806 99.5806 175.263 106.755 173.17 110.261C163.974 125.629 151.594 137.992 136.262 147.17C133.363 148.905 126.69 152.269 123.542 153.592C112.628 158.19 100.337 161.071 88.9053 161.697C70.2096 162.735 52.5873 159.174 36.0743 151.052C24.6421 145.416 15.1959 138.511 6.35793 129.315C-8.65231 113.678 -18.4564 93.6052 -21.6946 71.9754C-22.5533 66.2146 -22.7501 63.3163 -22.7501 56.5C-22.7501 48.646 -22.3386 44.0839 -20.9789 36.8203C-19.8518 30.7554 -17.2756 22.1142 -14.8961 16.3356C-13.6617 13.3478 -10.4593 6.81775 -8.90277 4.13416C0.507692 -12.1642 13.8362 -25.4927 30.1346 -34.9032C32.7824 -36.4239 39.3303 -39.6442 42.1571 -40.8071C52.9809 -45.2798 65.5222 -48.1244 76.8649 -48.6969C80.7114 -48.8937 88.3507 -48.7505 91.9825 -48.4106Z" fill="black"/>
<path d="M77.8485 -45.3692C69.8156 -44.8146 64.6095 -44.0453 58.0257 -42.4173C42.9081 -38.696 29.0608 -31.6471 16.752 -21.3958C13.7643 -18.909 7.0911 -12.2358 4.6043 -9.24803C-5.64703 3.06071 -12.6959 16.9081 -16.4172 32.0256C-17.7948 37.5896 -18.5104 41.937 -19.1545 48.5387C-19.4407 51.5443 -19.4407 61.4199 -19.1545 64.5508C-18.081 76.0723 -15.7731 85.608 -11.6046 95.7699C-9.38617 101.137 -5.18187 108.937 -1.81844 113.822C11.8858 133.841 31.8696 148.225 54.9843 154.702C70.9427 159.174 87.7778 159.693 103.969 156.222C120.607 152.644 135.886 145.041 149.143 133.734C151.898 131.39 157.39 125.898 159.734 123.143C178.609 101.012 187.178 72.9236 183.743 44.3344C181.167 22.7583 171.631 2.36298 156.782 -13.3271C148.194 -22.3976 139.07 -29.1603 127.942 -34.7243C116.206 -40.5745 104.416 -43.8664 90.8192 -45.1187C88.7618 -45.3155 79.5481 -45.4944 77.8485 -45.3692ZM91.3738 -41.6301C117.011 -39.4295 141.378 -26.7093 157.981 -6.92226C169.091 6.35258 176.533 22.2752 179.539 39.2355C180.076 42.1875 180.29 43.6545 180.63 46.6602C181.167 51.437 181.167 60.7759 180.63 66.0715C179.968 72.7805 178.752 78.8812 176.855 85.0713C170.772 105.073 158.768 122.338 142.076 135.076C130.232 144.11 115.651 150.587 100.927 153.36C94.1469 154.63 90.3004 154.97 82.5001 154.97C74.4493 154.97 70.567 154.612 63.2677 153.181C41.4411 148.905 21.332 136.99 6.93008 119.779C-11.4794 97.7558 -19.387 68.8266 -14.7176 40.4879C-8.72422 4.09836 17.0562 -25.8505 52.1934 -37.2469C60.5483 -39.9483 68.8674 -41.4512 78.2958 -41.97C80.6574 -42.0952 88.3145 -41.8984 91.3738 -41.6301Z" fill="black"/>
<path d="M77.5805 -38.5708C64.2341 -37.7299 52.1758 -34.5454 40.5469 -28.8383C21.5471 -19.4994 6.4653 -4.39972 -2.83783 14.5464C-11.7295 32.6697 -14.6277 52.3851 -11.318 72.2437C-8.07978 91.7624 1.25913 109.868 15.3033 123.858C29.3116 137.813 47.1665 147.062 66.4705 150.336C72.6069 151.374 75.1116 151.571 82.2321 151.571C89.1916 151.589 90.8912 151.481 96.3478 150.676C122.844 146.758 146.102 132.177 161.255 109.993C169.145 98.4535 174.476 84.8745 176.605 70.9019C177.357 65.9104 177.535 63.6383 177.607 57.8418C177.732 48.7712 176.981 42.098 174.906 33.6536C166.747 0.520203 141.253 -25.7611 108.227 -35.1C103.11 -36.5492 97.296 -37.6405 91.4458 -38.2309C88.8158 -38.5172 79.96 -38.7139 77.5805 -38.5708ZM87.7424 -35.0821C115.026 -33.4183 139.643 -20.215 155.941 1.4863C167.839 17.3195 174.279 36.6414 174.279 56.5C174.279 81.2606 164.404 104.805 146.781 121.98C142.774 125.898 139.84 128.367 135.671 131.336C120.178 142.357 101.626 148.279 82.6078 148.279C60.6023 148.279 39.4556 140.461 22.7458 126.166C20.1337 123.93 15.1244 118.92 12.8523 116.273C-8.07978 91.7982 -14.6814 58.2175 -4.57322 27.6603C1.56327 9.16138 13.3353 -6.79706 29.2937 -18.2113C42.6401 -27.7649 58.5449 -33.5793 74.9864 -34.9211C79.799 -35.3147 83.4129 -35.3505 87.7424 -35.0821Z" fill="black"/>
<path d="M78.743 -31.7545C68.116 -31.182 59.4211 -29.3214 50.118 -25.6717C29.4722 -17.5493 12.5835 -1.84134 2.88677 18.2677C-3.46441 31.4531 -6.54159 46.6423 -5.71862 60.8832C-5.61128 62.8512 -5.46816 64.7834 -5.43237 65.1769C-3.78644 80.2051 1.02614 93.623 9.1127 105.699C24.2124 128.224 48.6868 142.536 75.7016 144.611C111.733 147.402 145.922 127.919 161.756 95.591C168.232 82.3698 171.184 68.9519 170.808 54.3531C170.755 51.8484 170.665 49.5405 170.629 49.2543C170.593 48.9501 170.504 48.1451 170.432 47.4652C169.735 39.6649 167.23 29.9324 163.974 22.2394C150.771 -8.99759 121.215 -29.7865 87.2589 -31.7008C84.307 -31.8618 81.1046 -31.8976 78.743 -31.7545ZM90.9086 -28.0332C102.931 -26.7272 113.522 -23.4174 123.648 -17.8177C130.805 -13.8638 136.637 -9.44487 142.613 -3.45151C148.016 1.95146 151.665 6.62093 155.583 13.1152C157.086 15.6199 160.199 21.9174 161.398 24.8873C166.747 38.2337 168.608 52.743 166.836 67.0555C165.477 77.9509 161.756 89.1683 156.299 98.7219C155.047 100.922 151.647 106.057 150.109 108.043C145.6 113.929 139.929 119.6 134.043 124.109C132.057 125.647 126.922 129.046 124.722 130.299C105.812 141.069 83.3946 144.218 62.3194 139.047C38.5607 133.233 18.5947 117.561 7.19841 95.8057C2.18903 86.2879 -0.762921 76.3228 -2.06894 64.7297C-2.49831 60.8653 -2.49831 52.1347 -2.06894 48.2703C-0.727139 36.2657 2.33216 26.2827 7.73513 16.2282C11.6532 8.92882 16.4121 2.55975 22.3875 -3.43361C37.2904 -18.3723 56.3618 -26.924 77.9379 -28.3732C80.1743 -28.5163 88.4218 -28.3016 90.9086 -28.0332Z" fill="black"/>
<path d="M77.4555 -24.8844C72.1419 -24.5266 67.4725 -23.7931 62.3737 -22.4871C58.4377 -21.4852 56.4698 -20.8591 52.5696 -19.3204C35.4841 -12.6115 20.939 -0.0343628 11.7432 15.9777C9.2564 20.2894 6.34023 26.9089 4.8553 31.5426C3.69241 35.2281 2.36851 40.8457 1.83179 44.5133C0.561554 53.1008 0.704679 62.6007 2.26116 71.1167C6.26866 92.9432 18.8637 112.086 37.3626 124.449C47.9359 131.533 60.1731 136.006 73.1975 137.58C77.6344 138.117 87.0091 138.153 91.1776 137.67C96.0259 137.097 100.463 136.221 104.685 135.04C123.434 129.726 139.643 117.936 150.378 101.763C157.784 90.6174 162.042 78.8812 163.67 65.177C164.153 61.0084 164.118 51.6338 163.581 47.1969C161.631 31.0595 155.351 16.4966 144.975 4.04469C143.168 1.84415 138.874 -2.53906 136.441 -4.68593C120.393 -18.8732 98.6559 -26.3157 77.4555 -24.8844ZM90.7303 -21.2348C107.583 -19.392 122.933 -12.4147 135.582 -0.893112C138.212 1.52211 141.146 4.67087 143.579 7.73016C153.437 20.0747 159.448 35.3891 160.504 50.9539C162.06 73.7466 153.848 95.752 137.801 111.8C119.498 130.102 93.3066 138.153 67.9198 133.322C55.45 130.943 43.6422 125.504 33.7308 117.579C27.4154 112.533 22.1376 106.773 17.6471 100.064C13.4428 93.7483 10.7234 88.2201 8.41554 81.368C-2.5872 48.3956 9.38163 12.2386 37.8635 -7.62C49.4566 -15.6887 63.6976 -20.6801 77.5628 -21.5031C80.8726 -21.6999 87.6889 -21.5568 90.7303 -21.2348Z" fill="black"/>
<path d="M78.4753 -18.1754C72.7503 -17.7461 69.1364 -17.1736 64.1628 -15.9391C46.2185 -11.4486 30.4032 -0.213257 20.1518 15.3516C14.069 24.5831 10.1689 34.7271 8.61238 45.3005C7.93254 49.8805 7.8252 51.598 7.8252 56.5C7.8252 61.4557 7.96832 63.4774 8.63027 67.8427C10.2225 78.3266 14.0154 88.2917 19.8477 97.2728C31.2082 114.841 49.8145 126.971 70.4245 130.299C75.2729 131.086 76.8115 131.193 82.6796 131.175C89.8716 131.175 94.1296 130.675 100.463 129.118C127.335 122.481 148.481 101.334 155.119 74.4622C156.675 68.1289 157.176 63.871 157.176 56.6789C157.194 50.8108 157.087 49.2722 156.299 44.4239C152.972 23.8139 140.842 5.2076 123.273 -6.15294C120.482 -7.97778 118.729 -8.96178 115.258 -10.6614C107.315 -14.5615 99.622 -16.78 90.301 -17.8534C88.0647 -18.1039 80.3538 -18.3186 78.4753 -18.1754ZM90.1042 -14.4363C109.748 -12.3431 127.728 -2.12755 139.625 13.7057C143.043 18.2499 146.37 24.1001 148.499 29.2705C150.807 34.906 152.65 41.9013 153.419 48.0199C153.974 52.4567 153.992 60.0245 153.437 64.676C152.095 76.2871 147.998 87.1824 141.307 96.9865C136.602 103.892 129.893 110.601 122.987 115.307C115.885 120.155 108.371 123.572 100.248 125.665C90.0863 128.277 78.6363 128.581 68.546 126.524C54.5555 123.644 42.2289 117.06 32.1922 107.095C20.5991 95.5553 13.2639 80.3125 11.5822 64.193C10.8845 57.4661 11.0455 51.4906 12.1189 44.9069C16.3232 19.0907 34.5538 -2.46748 59.3144 -10.9297C64.8068 -12.8083 70.675 -14.0785 75.8811 -14.5079C77.205 -14.6331 78.6542 -14.7404 79.1014 -14.7762C80.7653 -14.9194 87.5279 -14.7047 90.1042 -14.4363Z" fill="black"/>
<path d="M78.3851 -11.3592C74.7712 -11.1445 69.1714 -10.2321 65.3786 -9.24806C42.1208 -3.16526 23.8187 14.7075 17.1992 37.7864C11.7068 56.9115 14.8555 77.4141 25.8761 94.0703C36.1454 109.599 52.5868 120.352 70.8711 123.482C75.5942 124.288 76.9897 124.395 82.5894 124.395C88.6007 124.395 90.7833 124.18 96.0074 123.125C101.589 121.998 106.724 120.298 111.823 117.847C118.997 114.394 124.865 110.243 130.554 104.554C141.324 93.784 147.89 80.4197 149.983 65.0338C150.323 62.5828 150.377 61.2768 150.395 56.6789C150.395 50.9718 150.288 49.6121 149.482 44.8711C147.55 33.6179 142.666 22.8298 135.403 13.8308C121.645 -3.23682 100.337 -12.6473 78.3851 -11.3592ZM89.7457 -7.63791C100.981 -6.29611 110.749 -2.55698 120.106 4.02677C128.228 9.73389 135.42 18.0888 140 27.1415C141.79 30.6838 142.648 32.7591 143.865 36.4625C146.244 43.6724 147.228 50.4351 147.031 58.1996C146.888 63.5847 146.37 67.4133 145.117 72.3332C142.791 81.4395 138.73 89.6155 132.844 97.0222C130.823 99.5448 125.545 104.823 123.022 106.844C115.616 112.73 107.439 116.791 98.3332 119.117C93.4132 120.37 89.5847 120.888 84.1996 121.031C76.435 121.228 69.6724 120.244 62.4625 117.865C47.7027 113.016 35.9307 103.731 27.4863 90.2954C26.1266 88.1306 23.4251 82.7634 22.4769 80.2945C16.0542 63.8172 16.5014 45.8372 23.7471 29.8251C30.7961 14.2065 44.214 1.75466 60.2082 -4.05978C66.0048 -6.15298 71.6582 -7.38745 77.7589 -7.90627C80.4247 -8.12096 86.9011 -7.97783 89.7457 -7.63791Z" fill="black"/>
<path d="M79.459 -4.56074C73.3583 -4.14925 68.8677 -3.32629 63.8047 -1.69824C45.5205 4.16988 30.9933 18.375 24.7137 36.5519C20.5273 48.6818 20.2589 61.7598 23.9444 74.1222C25.8408 80.5271 29.3474 87.5044 33.3727 92.9432C43.9819 107.238 60.1013 116.129 77.9204 117.525C81.1765 117.775 86.812 117.65 90.0145 117.257C103.432 115.611 116.171 109.385 125.778 99.7774C130.501 95.0543 133.99 90.2059 137.085 84.141C138.927 80.4913 140.233 77.2173 141.289 73.5497C142.058 70.884 143.024 66.1967 143.239 64.1035C143.311 63.5131 143.4 62.8332 143.436 62.5828C143.668 61.2589 143.722 54.4962 143.525 51.92C142.13 34.083 133.238 17.9815 118.944 7.37231C112.056 2.27348 103.379 -1.64457 95.167 -3.32629C89.9429 -4.39973 83.9495 -4.88277 79.459 -4.56074ZM86.8836 -1.08996C96.9202 -0.231209 106.116 2.89965 114.149 8.19527C130.555 19.0012 140.287 36.9992 140.287 56.5179C140.287 74.2117 132.362 90.6174 118.371 101.853C116.528 103.338 112.235 106.164 109.873 107.435C107.368 108.794 104.291 110.118 101.286 111.156C78.1888 119.063 52.7125 111.675 37.4339 92.639C24.7495 76.8595 21.3145 55.3371 28.417 36.2836C33.1402 23.5991 42.3538 12.8647 54.3584 6.06629C63.8763 0.681213 76.1492 -2.02027 86.8836 -1.08996Z" fill="black"/>
<path d="M78.2606 2.29146C67.1684 3.29333 56.9528 7.3545 48.5084 14.0993C46.0932 16.0315 42.032 20.0926 40.0998 22.5079C30.9398 33.9579 26.8071 48.5566 28.5783 63.209C29.8127 73.5319 34.1602 83.4791 40.9586 91.5657C42.6761 93.6231 46.4331 97.2907 48.5084 98.9545C56.1656 105.109 65.3972 109.045 75.5233 110.476C78.7257 110.923 86.3292 110.923 89.5674 110.476C110.589 107.542 127.639 93.3547 134.258 73.2994C135.081 70.8126 136.065 66.483 136.477 63.5669C136.924 60.3286 136.924 52.7251 136.477 49.5227C135.242 40.7921 132.38 33.2422 127.567 26.086C124.096 20.9156 119.284 15.9778 114.167 12.3102C106.975 7.15771 98.4949 3.81216 89.6569 2.63138C86.6334 2.23779 80.8905 2.05888 78.2606 2.29146ZM86.0788 5.69067C93.9864 6.2095 101.984 8.73208 108.871 12.8827C122.039 20.844 130.823 34.1726 133.06 49.6122C133.417 52.1526 133.56 57.9313 133.328 60.7043C131.628 81.1533 117.799 98.6504 98.3696 104.966C92.4299 106.898 87.2774 107.614 80.8905 107.417C75.9348 107.274 72.2135 106.665 67.6514 105.27C64.5921 104.34 62.8746 103.642 59.5827 102.014C38.4002 91.4047 27.3617 67.4849 33.033 44.3881C37.6309 25.6745 52.3191 11.1831 71.0506 6.88934C76.4357 5.65489 80.5327 5.33286 86.0788 5.69067Z" fill="black"/>
<path d="M78.4039 9.08987C74.3785 9.48347 69.7628 10.5211 66.1131 11.8629C61.551 13.5267 55.7544 16.8902 52.0868 19.9674C50.0294 21.7028 46.8449 24.941 45.2884 26.891C42.4974 30.4155 39.4024 35.9079 37.8638 40.1122C34.0889 50.3814 33.9994 61.7599 37.5954 72.1185C43.0521 87.8981 56.4521 99.688 72.7505 103.069C76.6864 103.892 77.903 104 82.6798 104C87.6176 103.982 89.836 103.731 93.9151 102.729C100.159 101.191 106.635 98.0421 111.842 94.0167C114.257 92.1381 118.139 88.2559 120.018 85.8407C124.043 80.6345 127.192 74.1581 128.73 67.9142C129.732 63.8352 129.983 61.6167 130.001 56.6789C130.001 51.9021 129.893 50.6856 129.07 46.7496C125.689 30.4692 113.881 17.0512 98.1552 11.5946C95.3821 10.6464 92.3228 9.89495 89.2993 9.42979C86.5084 9.01831 80.9981 8.8394 78.4039 9.08987ZM88.369 12.7574C93.1279 13.3836 97.5827 14.7433 101.912 16.8723C106.6 19.1623 110.16 21.7206 113.917 25.4956C120.411 31.9899 124.669 40.3985 126.19 49.7016C126.512 51.6696 126.583 52.8861 126.583 56.3211C126.601 60.7938 126.44 62.4934 125.671 65.9821C123.846 74.337 119.857 81.5827 113.72 87.7192C104.918 96.5214 93.4678 101.048 81.0696 100.636C73.2872 100.368 66.131 98.2389 59.4399 94.2135C55.665 91.9235 50.9776 87.8265 48.1688 84.3199C43.1594 78.094 39.8496 70.3831 38.7225 62.2787C38.3647 59.6309 38.311 53.888 38.651 51.3117C39.6349 43.5114 42.5332 36.2836 47.1848 30.0219C48.9739 27.6067 53.6075 22.973 56.0228 21.1839C62.3203 16.5145 69.9596 13.4552 77.3126 12.6859C78.3503 12.5785 79.4774 12.4533 79.8173 12.4175C81.0518 12.2744 86.3832 12.4891 88.369 12.7574Z" fill="black"/>
<path d="M78.6538 15.8883C64.2161 17.4985 52.1399 25.9071 45.914 38.6989C41.2803 48.1988 40.4752 58.6648 43.6061 68.6299C48.2577 83.5149 60.6201 94.1956 76.2386 96.8434C78.8685 97.2907 84.6114 97.398 87.3129 97.0402C94.7375 96.0562 101.178 93.4621 107.082 89.0968C109.408 87.3793 113.38 83.4076 115.097 81.0818C119.462 75.1779 122.056 68.7372 123.04 61.3126C123.398 58.6112 123.291 52.8683 122.844 50.2383C119.802 32.3477 106.223 18.894 88.4042 16.1567C86.1858 15.8168 80.6934 15.6737 78.6538 15.8883ZM85.8101 19.2876C101.733 20.7904 114.793 31.9005 118.729 47.2864C121.591 58.4501 119.158 70.1685 112.038 79.4895C110.893 80.9923 107.708 84.2484 106.116 85.5365C104.112 87.1646 101.25 88.9894 99.0491 90.0629C82.0709 98.3462 61.7114 92.818 51.3348 77.0922C45.0195 67.5207 43.463 55.6413 47.0948 44.6922C49.3311 37.9117 53.5712 31.8468 59.2425 27.3026C66.6492 21.3629 76.4354 18.4109 85.8101 19.2876Z" fill="black"/>
<path d="M79.1907 22.7046C70.5496 23.5276 62.2125 27.8929 56.5949 34.584C48.0968 44.6922 46.1646 58.7542 51.6392 70.7052C54.6806 77.3605 60.0478 83.0318 66.5957 86.5384C78.1889 92.7106 92.6982 91.5299 103.128 83.5685C104.721 82.352 107.762 79.3642 109.104 77.7004C112.02 74.0686 114.399 69.2381 115.509 64.6939C119.105 49.8984 112.575 34.6198 99.3893 27.0163C93.4675 23.5991 86.2218 22.0427 79.1907 22.7046ZM85.6314 26.0859C92.5729 26.891 98.7094 29.7356 103.611 34.4409C107.207 37.8759 109.837 42.0086 111.465 46.7138C112.7 50.292 113.004 52.242 113.004 56.5C113.004 59.613 112.932 60.4717 112.593 62.1892C110.052 74.7484 100.749 84.0516 88.2076 86.592C86.4722 86.932 85.6314 87.0035 82.5005 87.0035C79.4054 87.0035 78.5288 86.932 76.8292 86.592C74.074 86.0374 71.0326 84.9461 68.349 83.5864C57.9904 78.255 51.4245 66.8766 51.9612 55.2119C52.4443 44.9069 58.0798 35.4964 66.882 30.2545C72.4996 26.9089 79.4054 25.3882 85.6314 26.0859Z" fill="black"/>
<path d="M80.1749 29.4315C76.4715 29.8072 72.2136 31.1132 69.2974 32.777C65.0036 35.2281 61.1929 39.0209 58.7777 43.2967C56.2015 47.8409 54.9312 53.9238 55.4679 59.0941C56.1836 65.8568 58.9029 71.4387 63.7692 76.1081C67.5441 79.7578 71.8915 82.0478 77.2051 83.1928C79.6382 83.7295 84.9696 83.7653 87.4206 83.2823C91.3208 82.513 95.203 80.867 98.3339 78.6486C100.373 77.1995 103.2 74.3727 104.649 72.3332C106.868 69.2023 108.514 65.3201 109.283 61.4199C109.766 58.9689 109.73 53.6375 109.193 51.2044C108.048 45.8909 105.758 41.5434 102.109 37.7685C99.1926 34.7271 96.0439 32.5981 92.3763 31.1848C88.6193 29.7356 83.8604 29.0558 80.1749 29.4315ZM86.9733 33.1706C95.4535 34.7808 102.467 40.953 105.114 49.1648C106.063 52.0989 106.277 53.6375 106.206 57.1262C106.152 59.8277 106.081 60.4002 105.615 62.225C103.952 68.5583 100.391 73.4066 94.9526 76.8059C87.7963 81.2606 78.1175 81.4395 70.8181 77.2352C64.8247 73.7823 60.6383 68.0395 59.225 61.2768C58.724 58.8795 58.6704 54.4784 59.1176 52.2063C60.0122 47.662 62.1233 43.5472 65.1825 40.309C66.9537 38.4305 68.385 37.2855 70.514 36.0331C73.3228 34.3693 76.6147 33.2422 79.7455 32.8844C81.5704 32.6876 85.1485 32.8128 86.9733 33.1706Z" fill="black"/>
<path d="M79.4592 36.373C76.5072 36.8561 73.4479 38.0726 70.9612 39.7365C69.4583 40.7383 66.9179 43.2609 65.8802 44.7637C63.2503 48.5744 61.9443 53.1008 62.1769 57.484C62.7494 68.1468 71.0685 76.3944 81.6955 76.8416C93.6644 77.3426 103.343 67.6637 102.842 55.6949C102.395 44.9426 93.9864 36.5877 83.2162 36.1941C81.7671 36.1404 80.4432 36.1941 79.4592 36.373ZM84.7548 39.7007C90.4977 40.4879 95.2924 43.9944 97.7792 49.1648C98.8526 51.3833 99.3178 53.2618 99.443 55.6949C99.5683 58.0922 99.3178 59.774 98.5306 62.0997C97.6719 64.6223 96.509 66.4651 94.4873 68.4867C92.4657 70.5083 90.6229 71.6712 88.1004 72.53C85.7746 73.3172 84.0929 73.5676 81.6955 73.4424C79.2624 73.3172 77.3839 72.852 75.1654 71.7786C66.1665 67.4669 62.8746 56.5537 67.9555 47.8051C69.0647 45.8729 72.0346 42.9389 73.9847 41.8476C77.3302 39.9511 81.1409 39.1997 84.7548 39.7007Z" fill="black"/>
<path d="M79.9783 43.1536C71.9275 44.8533 67.1329 52.9219 69.6018 60.597C70.3174 62.8333 71.3729 64.5508 73.001 66.161C75.7025 68.8088 78.8333 70.0969 82.5904 70.0969C86.2579 70.0969 89.4067 68.7551 92.0903 66.0894C94.7381 63.4416 96.0083 60.4897 96.0799 56.7505C96.1693 53.0293 94.8454 49.7374 92.1618 47.0001C89.6929 44.4954 86.5621 43.1179 83.0376 42.9747C81.8568 42.939 80.7297 43.0105 79.9783 43.1536ZM85.7928 46.9107C90.015 48.4314 92.6986 52.1526 92.6986 56.5C92.6986 59.3089 91.7325 61.6168 89.675 63.6742C84.3079 69.0414 75.5236 67.0197 72.9115 59.8098C70.8899 54.2458 74.4501 47.8947 80.354 46.5707C81.9642 46.2129 84.2721 46.3561 85.7928 46.9107Z" fill="black"/>
<path d="M81.1052 49.8805C79.996 50.113 78.2964 51.0791 77.5629 51.9021C77.205 52.2957 76.6683 53.1366 76.3642 53.7985C75.8811 54.8362 75.8096 55.1582 75.8096 56.5C75.8275 59.273 77.1514 61.4199 79.6024 62.6186C80.6937 63.1553 80.9263 63.209 82.5007 63.209C83.9856 63.209 84.3434 63.1374 85.2916 62.708C86.6692 62.064 88.0468 60.6864 88.7087 59.273C89.156 58.3427 89.2097 57.9849 89.2097 56.5C89.2097 54.9256 89.156 54.693 88.6193 53.6017C87.2417 50.8108 84.0929 49.2543 81.1052 49.8805ZM83.8425 53.4407C85.7031 54.2995 86.4008 56.2316 85.5242 58.0744C84.6118 59.9529 81.9818 60.5075 80.4075 59.1299C78.4395 57.3945 78.8152 54.5141 81.1589 53.4407C82.0713 53.0113 82.93 53.0113 83.8425 53.4407Z" fill="black"/>
</g>
<defs>
<clipPath id="clip0_2095_235">
<rect width="152" height="99" fill="white" transform="translate(7 7)"/>
</clipPath>
</defs>
</svg>
