<svg width="15" height="16" viewBox="0 0 15 16" fill="none" xmlns="http://www.w3.org/2000/svg">
<path d="M13.3929 0.80249H1.60714C0.719866 0.80249 0 1.52709 0 2.42021V14.2835C0 15.1766 0.719866 15.9012 1.60714 15.9012H13.3929C14.2801 15.9012 15 15.1766 15 14.2835V2.42021C15 1.52709 14.2801 0.80249 13.3929 0.80249ZM8.16295 12.5781C8.16295 14.0476 7.3058 14.7183 6.05692 14.7183C4.92857 14.7183 4.27567 14.1318 3.94085 13.4207L5.08929 12.7231C5.31027 13.1174 5.51116 13.451 5.99665 13.451C6.45871 13.451 6.75335 13.269 6.75335 12.5579V7.7351H8.16295V12.5781ZM11.4978 14.7183C10.1886 14.7183 9.34152 14.0914 8.92969 13.269L10.0781 12.6017C10.3795 13.0972 10.7746 13.4645 11.4676 13.4645C12.0502 13.4645 12.4252 13.1713 12.4252 12.7635C12.4252 12.2782 12.0435 12.1063 11.3973 11.8198L11.0458 11.6682C10.0279 11.2334 9.35491 10.6841 9.35491 9.52807C9.35491 8.46307 10.1618 7.65421 11.4174 7.65421C12.3147 7.65421 12.9576 7.96764 13.4196 8.78999L12.3214 9.49774C12.0804 9.06298 11.8192 8.89109 11.4141 8.89109C11.0022 8.89109 10.7411 9.15397 10.7411 9.49774C10.7411 9.92239 11.0022 10.0943 11.6083 10.3605L11.9598 10.5122C13.1585 11.0278 13.8315 11.557 13.8315 12.7433C13.8315 14.0172 12.8337 14.7183 11.4978 14.7183Z" fill="#3D2DB4"/>
</svg>
