<svg width="16" height="15" viewBox="0 0 16 15" fill="none" xmlns="http://www.w3.org/2000/svg">
<rect width="16" height="15" rx="2" fill="#3D2DB3"/>
<path d="M8 6.19749C7.83614 6.19749 7.67389 6.23117 7.52251 6.29661C7.37112 6.36205 7.23357 6.45798 7.11771 6.5789C7.00184 6.69982 6.90993 6.84338 6.84723 7.00137C6.78452 7.15936 6.75225 7.3287 6.75225 7.49971C6.75225 7.67072 6.78452 7.84005 6.84723 7.99804C6.90993 8.15604 7.00184 8.29959 7.11771 8.42051C7.23357 8.54144 7.37112 8.63736 7.52251 8.7028C7.67389 8.76824 7.83614 8.80193 8 8.80193C8.16386 8.80193 8.32611 8.76824 8.47749 8.7028C8.62888 8.63736 8.76643 8.54144 8.88229 8.42051C8.99816 8.29959 9.09007 8.15604 9.15277 7.99804C9.21548 7.84005 9.24775 7.67072 9.24775 7.49971C9.24775 7.3287 9.21548 7.15936 9.15277 7.00137C9.09007 6.84338 8.99816 6.69982 8.88229 6.5789C8.76643 6.45798 8.62888 6.36205 8.47749 6.29661C8.32611 6.23117 8.16386 6.19749 8 6.19749ZM4.50467 10.0901L4.22933 10.0171C2.17717 9.47587 1 8.55719 1 7.49727C1 6.43735 2.17717 5.51868 4.22933 4.97745L4.50467 4.90501L4.58225 5.18992C4.79014 5.93735 5.05605 6.66586 5.37733 7.36821L5.43625 7.49788L5.37733 7.62755C5.05551 8.32966 4.78959 9.05821 4.58225 9.80583L4.50467 10.0901ZM4.10158 5.64287C2.54175 6.10008 1.5845 6.79959 1.5845 7.49727C1.5845 8.19435 2.54175 8.89385 4.10158 9.35167C4.29235 8.71848 4.52267 8.09902 4.79108 7.49727C4.52237 6.89566 4.29203 6.27618 4.10158 5.64287ZM11.4953 10.0901L11.4177 9.80462C11.2101 9.05723 10.944 8.32889 10.6221 7.62694L10.5632 7.49727L10.6221 7.3676C10.9438 6.66539 11.2099 5.93686 11.4177 5.18932L11.4953 4.9044L11.7712 4.97685C13.8228 5.51807 15 6.43674 15 7.49727C15 8.5578 13.8228 9.47587 11.7712 10.0171L11.4953 10.0901ZM11.2089 7.49727C11.4889 8.12981 11.7205 8.7514 11.8984 9.35167C13.4588 8.89385 14.4155 8.19435 14.4155 7.49727C14.4155 6.79959 13.4582 6.10069 11.8984 5.64287C11.7079 6.27616 11.4776 6.89564 11.2089 7.49727ZM4.0975 5.63983L4.01992 5.35552C3.443 3.23325 3.618 1.71247 4.5 1.1816C5.36508 0.660464 6.754 1.27596 8.20942 2.83509L8.40775 3.04756L8.20942 3.26003C7.69227 3.82111 7.21976 4.4252 6.79658 5.06634L6.71783 5.18384L6.58075 5.19601C5.83636 5.25726 5.09797 5.38145 4.37283 5.56738L4.0975 5.63983ZM5.2035 1.60349C5.04717 1.60349 4.90892 1.6388 4.79225 1.70882C4.21242 2.05766 4.10975 3.27038 4.50933 4.90683C5.13095 4.76251 5.76093 4.66062 6.39525 4.60183C6.76125 4.05871 7.16111 3.54133 7.59225 3.05304C6.68225 2.12828 5.82067 1.60349 5.2035 1.60349ZM10.7971 13.9998C10.7965 13.9998 10.7965 13.9998 10.7971 13.9998C9.96583 13.9998 8.89833 13.3466 7.79058 12.1594L7.59225 11.947L7.79058 11.7345C8.3076 11.1733 8.77991 10.569 9.20283 9.92759L9.28158 9.8101L9.41808 9.79792C10.1629 9.73701 10.9016 9.61302 11.6272 9.42716L11.9025 9.35471L11.9807 9.63963C12.5564 11.7607 12.382 13.2821 11.5 13.8123C11.2858 13.9388 11.0432 14.0035 10.7971 13.9998ZM8.40775 11.9415C9.31775 12.8663 10.1793 13.391 10.7965 13.391C10.9523 13.391 11.0917 13.3557 11.2077 13.2857C11.7876 12.9369 11.8908 11.7235 11.4907 10.0871C10.8689 10.2316 10.2387 10.3335 9.60417 10.3921C9.23861 10.9356 8.83893 11.4532 8.40775 11.9415ZM11.9025 5.63983L11.6272 5.56738C10.9017 5.38092 10.1629 5.25671 9.41808 5.19601L9.28158 5.18384L9.20283 5.06634C8.78013 4.425 8.3078 3.82088 7.79058 3.26003L7.59225 3.04756L7.79058 2.83509C9.24542 1.27657 10.6337 0.661073 11.5 1.1816C12.382 1.71247 12.557 3.23325 11.9807 5.35491L11.9025 5.63983ZM9.60417 4.60183C10.2703 4.66514 10.9032 4.76803 11.4907 4.90683C11.8908 3.27038 11.7876 2.05766 11.2077 1.70882C10.6314 1.36119 9.54817 1.89389 8.40775 3.05304C8.83868 3.54135 9.23835 4.05873 9.60417 4.60183ZM5.2035 13.9998C4.95721 14.0036 4.71441 13.9389 4.5 13.8123C3.618 13.2821 3.443 11.7613 4.01992 9.63963L4.09692 9.35471L4.37225 9.42716C5.046 9.60432 5.78917 9.72913 6.58017 9.79792L6.71725 9.8101L6.79542 9.92759C7.21866 10.5689 7.69116 11.1732 8.20825 11.7345L8.40658 11.947L8.20825 12.1594C7.10108 13.3466 6.03358 13.9998 5.2035 13.9998ZM4.50933 10.0871C4.10917 11.7235 4.21242 12.9369 4.79225 13.2857C5.368 13.6285 6.45067 13.1 7.59225 11.9415C7.16128 11.4528 6.76143 10.9353 6.39525 10.3921C5.7609 10.3336 5.13091 10.2317 4.50933 10.0871ZM8 10.4694C7.51992 10.4694 7.02642 10.4475 6.53233 10.4049L6.39525 10.3927L6.3165 10.2752C6.03703 9.85612 5.77431 9.42513 5.529 8.98335C5.28442 8.54121 5.05751 8.08869 4.84883 7.62694L4.79108 7.49727L4.84883 7.3676C5.05747 6.90583 5.28439 6.45331 5.529 6.01119C5.7705 5.57529 6.03592 5.14061 6.3165 4.71932L6.39525 4.60183L6.53233 4.58965C7.50922 4.5032 8.49136 4.5032 9.46825 4.58965L9.60475 4.60183L9.68292 4.71932C10.2424 5.55768 10.7336 6.44354 11.1512 7.3676L11.2101 7.49727L11.1512 7.62694C10.7346 8.55155 10.2434 9.4375 9.68292 10.2752L9.60475 10.3927L9.46825 10.4049C8.97417 10.4475 8.48008 10.4694 8 10.4694ZM6.71842 9.80949C7.58175 9.87706 8.41825 9.87706 9.28217 9.80949C9.76448 9.0736 10.1927 8.30065 10.5632 7.49727C10.1934 6.6934 9.76491 5.92039 9.28158 5.18505C8.42842 5.11748 7.57158 5.11748 6.71842 5.18505C6.23488 5.92025 5.80641 6.69328 5.43683 7.49727C5.80769 8.30056 6.2361 9.07349 6.71842 9.80949Z" fill="#F3BEF3"/>
</svg>
