<svg width="74" height="74" viewBox="0 0 74 74" fill="none" xmlns="http://www.w3.org/2000/svg">
<path d="M39.8469 3.1111L50.271 22.1708C50.7298 23.0098 51.4196 23.6995 52.2586 24.1584L71.3183 34.5825C73.3989 35.7204 73.3989 38.7087 71.3183 39.8466L52.2586 50.2707C51.4196 50.7295 50.7298 51.4193 50.271 52.2583L39.8469 71.318C38.709 73.3986 35.7207 73.3986 34.5828 71.318L24.1587 52.2583C23.6998 51.4193 23.0101 50.7295 22.1711 50.2707L3.1114 39.8466C1.03077 38.7087 1.03077 35.7204 3.1114 34.5825L22.1711 24.1584C23.0101 23.6995 23.6998 23.0098 24.1587 22.1708L34.5828 3.11109C35.7207 1.03046 38.709 1.03046 39.8469 3.1111Z" fill="#8682ED" stroke="black" stroke-width="2"/>
</svg>
